<svg xmlns="http://www.w3.org/2000/svg" width="21.345" height="21.345" viewBox="0 0 21.345 21.345">
  <path id="Path_62" data-name="Path 62" d="M1032.257,1026a10.673,10.673,0,1,0,10.673,10.673A10.672,10.672,0,0,0,1032.257,1026Zm5.595,11.248-4.538,4.539c-.317.316-.576.209-.576-.239v-1.781a.816.816,0,0,0-.814-.814h-3.641a.816.816,0,0,1-.814-.813v-2.774a.817.817,0,0,1,.814-.814h3.641a.816.816,0,0,0,.814-.814v-1.94c0-.448.259-.555.576-.238l4.538,4.538A.816.816,0,0,1,1037.852,1037.246Z" transform="translate(-1021.585 -1025.998)" fill="#fff"/>
</svg>
