<svg xmlns="http://www.w3.org/2000/svg" width="56.262" height="56.264" viewBox="0 0 56.262 56.264">
  <g id="money" transform="translate(-0.007)">
    <g id="Group_1581" data-name="Group 1581" transform="translate(7.479 49.67)">
      <g id="Group_1580" data-name="Group 1580">
        <path id="Path_2962" data-name="Path 2962" d="M69.879,452.323a1.1,1.1,0,1,0,.322.777A1.106,1.106,0,0,0,69.879,452.323Z" transform="translate(-68.003 -452.001)" fill="#fff"/>
      </g>
    </g>
    <g id="Group_1583" data-name="Group 1583" transform="translate(49.726 19.781)">
      <g id="Group_1582" data-name="Group 1582">
        <path id="Path_2963" data-name="Path 2963" d="M454.33,180.33a1.1,1.1,0,1,0,.323.777A1.1,1.1,0,0,0,454.33,180.33Z" transform="translate(-452.454 -180.008)" fill="#fff"/>
      </g>
    </g>
    <g id="Group_1585" data-name="Group 1585" transform="translate(0.007)">
      <g id="Group_1584" data-name="Group 1584" transform="translate(0)">
        <path id="Path_2964" data-name="Path 2964" d="M55.947.322A1.1,1.1,0,0,0,55.17,0H28.138a1.1,1.1,0,0,0-1.1,1.1V4.243L16.623,7.034a1.1,1.1,0,0,0-.777,1.346l5.4,20.147-4.67,4.67a3.3,3.3,0,0,0-2.721-1.439H3.3a3.3,3.3,0,0,0-3.3,3.3V52.967a3.3,3.3,0,0,0,3.3,3.3H13.853a3.3,3.3,0,0,0,3.2-2.5L18.359,54.9A5.536,5.536,0,0,0,22,56.264H55.17a1.1,1.1,0,0,0,1.1-1.1V1.1A1.1,1.1,0,0,0,55.947.322Zm-41,52.645a1.1,1.1,0,0,1-1.1,1.1H3.3a1.1,1.1,0,0,1-1.1-1.1V35.055a1.1,1.1,0,0,1,1.1-1.1H7.479V46.615a1.1,1.1,0,0,0,2.2,0V33.957h4.176a1.1,1.1,0,0,1,1.1,1.1V52.967Zm3.3-44.095,8.786-2.354V10.59l-.736.2a1.1,1.1,0,0,0-.777,1.346,2.962,2.962,0,0,1-2.092,3.624,1.1,1.1,0,0,0-.776,1.348L26.94,32.966H24.735L23.6,28.52a1.1,1.1,0,0,0-.184-.385Zm8.786,6.757V24.9l-2-7.421A5.148,5.148,0,0,0,27.039,15.63ZM42.826,54.066H22a3.339,3.339,0,0,1-2.195-.823l-2.654-2.314V35.73l4.8-4.8.87,3.4a1.1,1.1,0,0,0,1.065.827h21.6a1.538,1.538,0,0,1,0,3.077H34.416a1.1,1.1,0,1,0,0,2.2h14.51a1.538,1.538,0,0,1,0,3.077H34.416a1.1,1.1,0,1,0,0,2.2H46.575a1.538,1.538,0,1,1,0,3.077H34.416a1.1,1.1,0,1,0,0,2.2h8.41a1.538,1.538,0,1,1,0,3.076Zm11.245,0H46.23a3.723,3.723,0,0,0,0-3.077h.345a3.734,3.734,0,0,0,3.34-5.408,3.733,3.733,0,0,0,2.01-5.828V25.825a1.1,1.1,0,0,0-2.2,0v12.5a3.737,3.737,0,0,0-.8-.087H48.89a3.734,3.734,0,0,0-3.4-5.275H43.72a5.259,5.259,0,1,0-4.132,0H33.581V12.073a5.173,5.173,0,0,0,3.94-3.94h8.266a5.173,5.173,0,0,0,3.94,3.94v3.416a1.1,1.1,0,1,0,2.2,0v-4.4a1.1,1.1,0,0,0-1.1-1.1,2.962,2.962,0,0,1-2.959-2.959,1.1,1.1,0,0,0-1.1-1.1H36.54a1.1,1.1,0,0,0-1.1,1.1,2.962,2.962,0,0,1-2.959,2.959,1.1,1.1,0,0,0-1.1,1.1V32.967H29.237V2.2H54.071ZM41.654,31.193a3.061,3.061,0,1,1,3.061-3.061A3.065,3.065,0,0,1,41.654,31.193Z" transform="translate(-0.007)" fill="#fff"/>
      </g>
    </g>
  </g>
</svg>
