<svg xmlns="http://www.w3.org/2000/svg" width="56.26" height="56.26" viewBox="0 0 56.26 56.26">
  <g id="money" transform="translate(-0.007)">
    <g id="Group_1581" data-name="Group 1581" transform="translate(42.295 49.667)">
      <g id="Group_1580" data-name="Group 1580">
        <path id="Path_2962" data-name="Path 2962" d="M68.325,452.323A1.1,1.1,0,1,1,68,453.1,1.106,1.106,0,0,1,68.325,452.323Z" transform="translate(-68.003 -452.001)" fill="#fff"/>
      </g>
    </g>
    <g id="Group_1583" data-name="Group 1583" transform="translate(4.351 19.78)">
      <g id="Group_1582" data-name="Group 1582">
        <path id="Path_2963" data-name="Path 2963" d="M452.777,180.33a1.1,1.1,0,1,1-.323.777A1.1,1.1,0,0,1,452.777,180.33Z" transform="translate(-452.454 -180.008)" fill="#fff"/>
      </g>
    </g>
    <g id="Group_1585" data-name="Group 1585" transform="translate(0.007)">
      <g id="Group_1584" data-name="Group 1584">
        <path id="Path_2964" data-name="Path 2964" d="M.329.322A1.1,1.1,0,0,1,1.106,0H28.137a1.1,1.1,0,0,1,1.1,1.1V4.243L39.652,7.033a1.1,1.1,0,0,1,.777,1.346l-5.4,20.146L39.7,33.2a3.3,3.3,0,0,1,2.721-1.439H52.971a3.3,3.3,0,0,1,3.3,3.3v17.91a3.3,3.3,0,0,1-3.3,3.3H42.422a3.3,3.3,0,0,1-3.2-2.5L37.916,54.9a5.536,5.536,0,0,1-3.639,1.364H1.106a1.1,1.1,0,0,1-1.1-1.1V1.1A1.1,1.1,0,0,1,.329.322ZM41.323,52.964a1.1,1.1,0,0,0,1.1,1.1H52.971a1.1,1.1,0,0,0,1.1-1.1V35.053a1.1,1.1,0,0,0-1.1-1.1H48.8V46.612a1.1,1.1,0,0,1-2.2,0V33.954H42.422a1.1,1.1,0,0,0-1.1,1.1v17.91Zm-3.3-44.092L29.236,6.518v4.072l.736.2a1.1,1.1,0,0,1,.777,1.346,2.962,2.962,0,0,0,2.092,3.624,1.1,1.1,0,0,1,.776,1.348l-4.283,15.86H31.54l1.137-4.446a1.1,1.1,0,0,1,.184-.385Zm-8.786,6.757V24.9l2-7.421A5.148,5.148,0,0,1,29.236,15.628ZM13.449,54.062H34.277a3.339,3.339,0,0,0,2.195-.822l2.654-2.314v-15.2l-4.8-4.8-.87,3.4a1.1,1.1,0,0,1-1.065.827h-21.6a1.538,1.538,0,1,0,0,3.077h11.07a1.1,1.1,0,1,1,0,2.2H7.35a1.538,1.538,0,1,0,0,3.077H21.859a1.1,1.1,0,1,1,0,2.2H9.7a1.538,1.538,0,1,0,0,3.077H21.859a1.1,1.1,0,1,1,0,2.2h-8.41a1.538,1.538,0,1,0,0,3.076Zm-11.245,0h7.841a3.723,3.723,0,0,1,0-3.077H9.7a3.733,3.733,0,0,1-3.339-5.408,3.733,3.733,0,0,1-2.01-5.828V25.823a1.1,1.1,0,0,1,2.2,0v12.5a3.737,3.737,0,0,1,.8-.087h.036a3.734,3.734,0,0,1,3.4-5.274h1.766a5.259,5.259,0,1,1,4.132,0h6.007V12.072a5.173,5.173,0,0,1-3.94-3.94H10.489a5.173,5.173,0,0,1-3.94,3.94v3.416a1.1,1.1,0,0,1-2.2,0v-4.4a1.1,1.1,0,0,1,1.1-1.1A2.962,2.962,0,0,0,8.409,7.034a1.1,1.1,0,0,1,1.1-1.1H19.736a1.1,1.1,0,0,1,1.1,1.1,2.962,2.962,0,0,0,2.959,2.959,1.1,1.1,0,0,1,1.1,1.1V32.965h2.146V2.2H2.2ZM14.622,31.191A3.061,3.061,0,1,0,11.56,28.13,3.064,3.064,0,0,0,14.622,31.191Z" transform="translate(-0.007)" fill="#fff"/>
      </g>
    </g>
  </g>
</svg>
