<svg xmlns="http://www.w3.org/2000/svg" xmlns:xlink="http://www.w3.org/1999/xlink" width="62" height="62" viewBox="0 0 62 62">
  <defs>
    <filter id="Ellipse_45" x="0" y="0" width="62" height="62" filterUnits="userSpaceOnUse">
      <feOffset input="SourceAlpha"/>
      <feGaussianBlur stdDeviation="3" result="blur"/>
      <feFlood flood-color="#d2d2d2" flood-opacity="0.22"/>
      <feComposite operator="in" in2="blur"/>
      <feComposite in="SourceGraphic"/>
    </filter>
  </defs>
  <g id="Group_1705" data-name="Group 1705" transform="translate(-176 -795)">
    <g transform="matrix(1, 0, 0, 1, 176, 795)" filter="url(#Ellipse_45)">
      <circle id="Ellipse_45-2" data-name="Ellipse 45" cx="22" cy="22" r="22" transform="translate(9 9)" fill="#fff"/>
    </g>
    <path id="Icon_material-delete-forever" data-name="Icon material-delete-forever" d="M8.639,22.721A2.284,2.284,0,0,0,10.916,25h9.111A2.284,2.284,0,0,0,22.3,22.721V9.055H8.639Zm2.8-8.108,1.606-1.606,2.426,2.414,2.414-2.414,1.606,1.606-2.414,2.414,2.414,2.414-1.606,1.606-2.414-2.414-2.414,2.414-1.606-1.606,2.414-2.414Zm8.017-8.974L18.319,4.5H12.625L11.486,5.639H7.5V7.916H23.444V5.639Z" transform="translate(191.433 810.901)" fill="#d10000"/>
  </g>
</svg>
