<svg xmlns="http://www.w3.org/2000/svg" width="73.102" height="148.769" viewBox="0 0 73.102 148.769">
  <g id="Group_194" data-name="Group 194" transform="translate(-176.127 -200.911)">
    <path id="Path_101" data-name="Path 101" d="M66.193,0H13.127V-100.128H63.959v10.613h-39.1v33.306H61.026v10.543H24.857v35.052H66.193Z" transform="translate(163 349.68)" fill="#285db3"/>
    <path id="Path_102" data-name="Path 102" d="M54.807,16.355q-9.023,5.383-21.841,5.383-13.638,0-21.2-6.511T4.2-2.717q0-11.792,10.2-18.611Q7.332-26.814,7.332-33.684q0-9.331,5.665-14.868t14.535-5.537a49.428,49.428,0,0,1,10.92,1.384v9.639h-.564A37.583,37.583,0,0,0,27.942-44.6q-6.306,0-10.1,2.974a9.793,9.793,0,0,0-3.794,8.152q0,5.588,5.588,9.434l25.84-9.536v8.921L24.148-16.919A23.777,23.777,0,0,0,14.458-11,11.752,11.752,0,0,0,10.92-2.82,12.791,12.791,0,0,0,16.868,8.152q5.947,4.153,16,4.153a36.575,36.575,0,0,0,11.177-1.974,38.157,38.157,0,0,0,10.254-4.9h.513Z" transform="translate(194.421 255)" fill="#23bde4"/>
  </g>
</svg>
