<svg xmlns="http://www.w3.org/2000/svg" width="47.56" height="56.94" viewBox="0 0 47.56 56.94">
  <g id="Group_77" data-name="Group 77" transform="translate(-10.125 -2.5)">
    <g id="Group_76" data-name="Group 76" transform="translate(11.625 4)">
      <line id="Line_22" data-name="Line 22" y1="16.417" transform="translate(4.691 11.726)" fill="none" stroke="#fff" stroke-linecap="round" stroke-linejoin="round" stroke-width="3"/>
      <path id="Path_59" data-name="Path 59" d="M1242.845,876.227h4.691l2.345-4.691-2.345-7.036h-4.691l-2.345,7.036Z" transform="translate(-1240.5 -864.5)" fill="none" stroke="#fff" stroke-linecap="round" stroke-linejoin="round" stroke-width="3"/>
      <path id="Path_60" data-name="Path 60" d="M1241.917,886.439V913.2a4.689,4.689,0,0,1-4.691,4.69h0a4.689,4.689,0,0,1-4.691-4.69V886.439a11.752,11.752,0,0,1,0-21.529v8.419a4.691,4.691,0,0,0,9.381,0V864.91a11.752,11.752,0,0,1,0,21.529Z" transform="translate(-1204.394 -863.949)" fill="none" stroke="#fff" stroke-linecap="round" stroke-linejoin="round" stroke-width="3"/>
    </g>
    <path id="Path_61" data-name="Path 61" d="M1245.191,902.3h0a4.689,4.689,0,0,0,4.691-4.691V876.5H1240.5v21.108A4.689,4.689,0,0,0,1245.191,902.3Z" transform="translate(-1228.875 -844.359)" fill="none" stroke="#fff" stroke-linecap="round" stroke-linejoin="round" stroke-width="3"/>
  </g>
</svg>
