<svg xmlns="http://www.w3.org/2000/svg" width="38.281" height="60.962" viewBox="0 0 38.281 60.962">
  <g id="Group_144" data-name="Group 144" transform="translate(-1011 -791)">
    <path id="Path_76" data-name="Path 76" d="M1027.927,794.167l-11.76,23.521h8.4v15.121l8.4-20.161h-8.4Z" transform="translate(5.574 2.533)" fill="none" stroke="#fff" stroke-linecap="round" stroke-linejoin="round" stroke-width="3"/>
    <path id="Path_77" data-name="Path 77" d="M1012.5,846.682V797.54a5.039,5.039,0,0,1,5.04-5.04h25.2a5.039,5.039,0,0,1,5.04,5.04v49.142" fill="none" stroke="#fff" stroke-linecap="round" stroke-linejoin="round" stroke-width="3"/>
    <path id="Path_78" data-name="Path 78" d="M1044,812.5H1016.28a3.782,3.782,0,0,0-3.78,3.78h0a3.781,3.781,0,0,0,3.78,3.78H1044a3.781,3.781,0,0,0,3.78-3.78h0A3.782,3.782,0,0,0,1044,812.5Z" transform="translate(0 30.402)" fill="none" stroke="#fff" stroke-linecap="round" stroke-linejoin="round" stroke-width="3"/>
  </g>
</svg>
