<svg xmlns="http://www.w3.org/2000/svg" width="70" height="70" viewBox="0 0 70 70">
  <g id="user-2" transform="translate(-1693 -89)">
    <rect id="Rectangle_2289" data-name="Rectangle 2289" width="70" height="70" transform="translate(1693 89)" fill="#f3f3f3"/>
    <g id="_x36_" transform="translate(1163.536 -95.675)">
      <g id="Group_763" data-name="Group 763" transform="translate(535.464 194.347)">
        <g id="Group_750" data-name="Group 750" transform="translate(16.494 17.49)">
          <g id="Group_748" data-name="Group 748" transform="translate(0 0)">
            <path id="Path_825" data-name="Path 825" d="M568.451,228.87a4.371,4.371,0,0,0-.435-1.96,3.858,3.858,0,0,0-.209-.469,1.1,1.1,0,0,0-.537-.544c-1.047-.418-2.027,1.022-2.111,1.893a5.653,5.653,0,0,0-.008.65,4.433,4.433,0,0,0,.268,1.315c.075.209.16.418.251.62,1.03,1.382,1.03,4.364,3.267,2.874.746-.746,0-2.988-.486-3.727A1.9,1.9,0,0,1,568.451,228.87Z" transform="translate(-565.145 -225.822)" fill="#f0d09f"/>
          </g>
          <g id="Group_749" data-name="Group 749" transform="translate(21.256 0)">
            <path id="Path_826" data-name="Path 826" d="M605.387,225.9a1.129,1.129,0,0,0-.536.544,6.286,6.286,0,0,0-.65,2.429,1.714,1.714,0,0,1,0,.65c-.486.746-1.232,2.988-.486,3.727,2.237,1.491,2.237-1.491,3.268-2.874.092-.209.175-.411.251-.62a4.321,4.321,0,0,0,.268-1.315,3.392,3.392,0,0,0-.008-.65C607.414,226.919,606.427,225.478,605.387,225.9Z" transform="translate(-603.4 -225.822)" fill="#e2b477"/>
          </g>
        </g>
        <g id="Group_755" data-name="Group 755" transform="translate(18.721 6.206)">
          <g id="Group_751" data-name="Group 751" transform="translate(9.922 24.856)">
            <path id="Path_827" data-name="Path 827" d="M594,250.242c-.008.008-.025.017-.034.025-.218.235-.444.469-.687.7a10.477,10.477,0,0,1-4.985,3.008,5.381,5.381,0,0,1-.746.034c-.2,0-.39-.008-.537-.017v11.563c.117-.008.235-.008.369-.025a2.833,2.833,0,0,0,.377,0c3.795.52,3.829-3.46,6.756-6.793q-.377-2.5-.65-5.219a17.336,17.336,0,0,1,.136-3.279Z" transform="translate(-587.012 -250.242)" fill="#d2a965"/>
          </g>
          <g id="Group_752" data-name="Group 752" transform="translate(3.429 24.856)">
            <path id="Path_828" data-name="Path 828" d="M576.548,250.9c-.218-.209-.418-.427-.62-.637l-.025-.025c-.092,1.5.235,1.689.068,3.284q-.277,2.714-.65,5.219c2.823,3.226,3.066,7.029,6.5,6.819V254c-.083-.008-.16-.008-.209-.017a10.537,10.537,0,0,1-5.06-3.082Z" transform="translate(-575.321 -250.242)" fill="#e2b477"/>
          </g>
          <g id="Group_753" data-name="Group 753" transform="translate(0 0.025)">
            <path id="Path_829" data-name="Path 829" d="M569.341,212.238a12.733,12.733,0,0,0-.175,1.8,61.99,61.99,0,0,0,.243,8.219,11.683,11.683,0,0,0,2.932,7.247c.251.294.527.6.812.909.2.209.4.427.62.637a10.524,10.524,0,0,0,5.053,3.069,1.157,1.157,0,0,0,.209.017V205.56C573.075,205.963,570.193,207.286,569.341,212.238Z" transform="translate(-569.124 -205.56)" fill="#f0d09f"/>
          </g>
          <g id="Group_754" data-name="Group 754" transform="translate(9.916)">
            <path id="Path_830" data-name="Path 830" d="M597.78,212.217c-.88-5.1-3.9-6.358-10.245-6.7-.184.008-.36.025-.537.034v28.574c.151.008.343.017.537.017a5.388,5.388,0,0,0,.746-.034,10.44,10.44,0,0,0,4.985-3.008c.243-.235.469-.469.687-.7.294-.311.569-.612.821-.909a11.684,11.684,0,0,0,2.932-7.247,61.99,61.99,0,0,0,.243-8.219A10.659,10.659,0,0,0,597.78,212.217Z" transform="translate(-586.998 -205.515)" fill="#e2b477"/>
          </g>
        </g>
        <g id="Group_756" data-name="Group 756" transform="translate(16.754 0.743)">
          <path id="Path_831" data-name="Path 831" d="M567.648,199.807c-2.468,2.874-2.287,5.914-1.533,9.484.2.947.729,4.339,1.429,7.062.109.411.637.1.909.143.352-1.106-.008-6.308.268-7.741.268-1.365.569-3.829,1.689-4.725a4.485,4.485,0,0,1,3-.812c1.055.042,2.094.294,3.141.427a5.354,5.354,0,0,0,1.215,0v-7.96c-.461.025-.909.058-1.373.1A12.919,12.919,0,0,0,567.648,199.807Z" transform="translate(-565.618 -195.686)" fill="#894e3a"/>
        </g>
        <g id="Group_757" data-name="Group 757" transform="translate(28.889 0)">
          <path id="Path_832" data-name="Path 832" d="M597.268,194.354c-3.192.78-6.526.553-9.818.746v7.959c1.968-.184,4.157-1.132,5.931-.544,1.985.661,3.066,4.417,3.508,6.249a31.231,31.231,0,0,1,.418,6.509l.947-.151c.561-3.108,2.362-5.746,2.513-9.081a14.387,14.387,0,0,0-.051-1.994C600.628,203.134,598.434,194.07,597.268,194.354Z" transform="translate(-587.451 -194.347)" fill="#7b371c"/>
        </g>
        <g id="Group_760" data-name="Group 760" transform="translate(0 38.492)">
          <g id="Group_758" data-name="Group 758" transform="translate(18.69)">
            <path id="Path_833" data-name="Path 833" d="M572.715,263.613l-3.62,3.149a34.868,34.868,0,0,0,2.639,4.407,36.005,36.005,0,0,0,4.222,4.976,12.232,12.232,0,0,1,3.6-5.957C575.573,268.832,572.715,263.613,572.715,263.613Z" transform="translate(-569.095 -263.613)" fill="#fff"/>
          </g>
          <g id="Group_759" data-name="Group 759" transform="translate(0 1.633)">
            <path id="Path_834" data-name="Path 834" d="M564.62,286.751l-.008-15.255s-1.734,3.72-3.727,2.728l-3.08-7.672L555.1,267.8l-3.14,1.454-.972.3-2.572.8-6.543,2.027a4.658,4.658,0,0,0-1.936,1.2l-2.513,2.665a4.5,4.5,0,0,0-1.147,2.254c-.184,1-.469,6.375-.812,8.251h29.161Z" transform="translate(-535.464 -266.553)" fill="#78919e"/>
          </g>
        </g>
        <g id="Group_762" data-name="Group 762" transform="translate(29.199 40.118)">
          <g id="Group_761" data-name="Group 761" transform="translate(0 0)">
            <path id="Path_835" data-name="Path 835" d="M617.17,286.744c-.343-1.876-.629-7.255-.812-8.251a4.5,4.5,0,0,0-1.147-2.254l-2.513-2.665a4.4,4.4,0,0,0-1.936-1.2l-6.543-2.027-2.572-.8-.972-.3-3.151-1.458-2.706-1.249-3.074,7.674c-1.994.989-3.727-2.728-3.727-2.728l-.008,15.255h29.161Z" transform="translate(-588.01 -266.538)" fill="#6a828c"/>
          </g>
        </g>
      </g>
      <g id="Group_768" data-name="Group 768" transform="translate(550.494 231.19)">
        <g id="Group_764" data-name="Group 764" transform="translate(6.684 7.409)">
          <path id="Path_836" data-name="Path 836" d="M588.033,290.046l1.667-8.315-6.953-7.757h-.938s-7.313,7.682-7.264,8.243l1.659,7.833h11.823Z" transform="translate(-574.545 -273.974)" fill="#bad1dd"/>
        </g>
        <g id="Group_765" data-name="Group 765" transform="translate(11.36 6.983)">
          <path id="Path_837" data-name="Path 837" d="M584.516,278.794l-1.559,10.913h5.78l-1.559-10.913a1.559,1.559,0,0,1,.143-1.047l.938-1.768a.286.286,0,0,0-.068-.31l-1.081-1.081a2.84,2.84,0,0,1-.687-.8c-.1-.226-.39-.746-.712-.527-.285.192-.377.486-.561.746a5.992,5.992,0,0,1-.7.687c-.318.318-.65.65-.972.964a.286.286,0,0,0-.068.31l.938,1.768A1.458,1.458,0,0,1,584.516,278.794Z" transform="translate(-582.957 -273.211)" fill="#1c75bc"/>
        </g>
        <g id="Group_766" data-name="Group 766" transform="translate(5.52)">
          <path id="Path_838" data-name="Path 838" d="M581.372,267.412a.273.273,0,0,1-.377,0l-6.987-6.769-1.559,4.91,3.015,10.723,5.488-8.285a.274.274,0,0,1,.461,0l5.488,8.285,3.015-10.723-1.559-4.91Z" transform="translate(-572.45 -260.644)" fill="#e4f4ff"/>
        </g>
        <g id="Group_767" data-name="Group 767" transform="translate(0 3.987)">
          <path id="Path_839" data-name="Path 839" d="M563.119,276.337l3.727,10.983h6.392l-.486-1.584-2.094-10.07-2.639-7.833c-.6.175-2.588,1.055-4.608,1.667a17.555,17.555,0,0,0-.9,2.957l4.524,2.228Z" transform="translate(-562.515 -267.826)" fill="#64787d"/>
          <path id="Path_840" data-name="Path 840" d="M600.816,287.313l3.768-10.983-3.938-1.659,4.524-2.228a15.145,15.145,0,0,0-.9-2.756c-2.011-.6-4-1.689-4.6-1.868l-3.586,10.631-1.156,7.275-.537,1.584h6.417Z" transform="translate(-576.68 -267.819)" fill="#64787d"/>
        </g>
      </g>
    </g>
  </g>
</svg>
