<svg xmlns="http://www.w3.org/2000/svg" width="23.954" height="15.968" viewBox="0 0 23.954 15.968">
  <g id="Group_87" data-name="Group 87" transform="translate(0)">
    <path id="Path_66" data-name="Path 66" d="M195.789,1175.822c-.211-.308-5.251-7.556-11.683-7.556s-11.472,7.247-11.683,7.556l-.293.428.293.428c.211.309,5.251,7.556,11.683,7.556s11.472-7.247,11.683-7.556l.294-.428Zm-11.683,6.607a6.179,6.179,0,1,1,6.179-6.179A6.186,6.186,0,0,1,184.106,1182.428Zm-10.118-6.179a23.151,23.151,0,0,1,3.23-3.42,7.669,7.669,0,0,0,0,6.834A23.233,23.233,0,0,1,173.987,1176.249Zm17.006,3.422a7.671,7.671,0,0,0,0-6.834,23.27,23.27,0,0,1,3.226,3.414A23.172,23.172,0,0,1,190.994,1179.671Z" transform="translate(-172.129 -1168.266)" fill="#fff"/>
    <path id="Path_67" data-name="Path 67" d="M204.482,1185.313a2.619,2.619,0,1,0,2.619,2.619A2.619,2.619,0,0,0,204.482,1185.313Z" transform="translate(-192.506 -1179.948)" fill="#fff"/>
  </g>
</svg>
